<?xml version="1.0" standalone="no"?>
<!DOCTYPE svg PUBLIC "-//W3C//DTD SVG 20010904//EN"
 "http://www.w3.org/TR/2001/REC-SVG-20010904/DTD/svg10.dtd">
<svg version="1.0" xmlns="http://www.w3.org/2000/svg"
 width="500.000000pt" height="500.000000pt" viewBox="0 0 500.000000 500.000000"
 preserveAspectRatio="xMidYMid meet">

<g transform="translate(0.000000,500.000000) scale(0.100000,-0.100000)"
fill="#000000" stroke="none">
<path d="M1966 3151 c-196 -209 -208 -219 -256 -231 -50 -12 -55 -17 -272
-267 l-222 -254 -45 45 -45 45 -295 -302 c-163 -166 -341 -349 -396 -406
l-100 -104 130 104 c72 58 236 191 365 295 129 105 240 193 246 197 11 6 114
-34 354 -137 l85 -37 -79 79 -78 80 173 216 c148 185 177 216 200 216 83 0 78
-5 261 266 94 140 174 254 177 254 5 0 48 -68 127 -200 l22 -35 -43 -100 c-24
-55 -42 -101 -41 -103 2 -1 43 -6 92 -10 l89 -8 -94 -61 -94 -61 34 -6 c19 -3
94 -7 167 -9 73 -3 136 -7 139 -10 3 -3 -28 -59 -69 -124 l-74 -118 -87 -11
-86 -12 -158 -133 c-203 -170 -195 -163 -158 -149 17 7 176 66 354 131 l325
120 248 241 c146 141 253 237 258 232 4 -5 61 -90 124 -189 l116 -179 -28 -31
c-73 -80 -76 -84 -56 -80 52 12 339 65 351 65 9 0 -1 -22 -27 -59 -22 -33 -40
-63 -40 -66 0 -12 324 -358 327 -349 1 5 -13 72 -31 149 -19 77 -33 141 -32
142 1 1 177 -110 391 -248 215 -138 408 -262 430 -276 38 -24 36 -21 -21 38
-129 136 -1038 1064 -1044 1067 -3 1 -35 -4 -70 -11 l-65 -13 -156 118 -156
119 -140 -84 -139 -84 -332 278 c-182 154 -336 279 -341 279 -5 0 -101 -99
-215 -219z"/>
</g>
</svg>
